<svg version="1.1" id="Layer_1" xmlns="http://www.w3.org/2000/svg" xmlns:xlink="http://www.w3.org/1999/xlink" x="0px" y="0px"
	 width="100%" viewBox="0 0 600 600" enable-background="new 0 0 600 600" xml:space="preserve">
<path fill="#FFEC3D" opacity="1.000000" stroke="none" 
	d="
M2.000000,1.000000 
	C200.166672,1.000000 398.333344,0.997792 596.500000,1.041327 
	C598.000061,1.041657 599.500000,1.666665 600.650024,2.499615 
	C599.040771,4.046596 597.688049,5.000720 596.535339,6.154582 
	C499.994476,102.787933 403.467987,199.435623 306.953674,296.095428 
	C305.435303,297.616089 304.080505,299.300079 302.399536,300.928375 
	C301.817383,300.980621 301.485077,301.012329 300.958679,300.764313 
	C252.205032,251.831848 203.647583,203.176956 155.071426,154.540741 
	C154.036377,153.504425 152.785873,152.683289 151.427704,151.482178 
	C102.903946,102.920113 54.583149,54.642879 6.295641,6.332371 
	C4.691313,4.727279 3.424266,2.785068 2.000000,1.000000 
z"/>
<path fill="#1677FF" opacity="1.000000" stroke="none" 
	d="
M302.649384,300.907837 
	C304.080505,299.300079 305.435303,297.616089 306.953674,296.095428 
	C403.467987,199.435623 499.994476,102.787933 596.535339,6.154582 
	C597.688049,5.000720 599.040771,4.046596 600.650024,2.999616 
	C601.000000,201.020889 601.000000,399.041779 600.659302,597.511475 
	C598.998535,596.691101 597.655029,595.445374 596.361877,594.149353 
	C549.995911,547.678345 503.637360,501.199921 457.259491,454.740784 
	C455.865265,453.344116 454.276184,452.141937 452.658691,450.557922 
	C426.958496,424.796417 401.369965,399.333679 375.798798,373.853485 
	C351.406250,349.547699 327.031799,325.223785 302.649384,300.907837 
z"/>
<path fill="#52C41A" opacity="1.000000" stroke="none" 
	d="
M452.777954,450.849091 
	C454.276184,452.141937 455.865265,453.344116 457.259491,454.740784 
	C503.637360,501.199921 549.995911,547.678345 596.361877,594.149353 
	C597.655029,595.445374 598.998535,596.691101 600.659302,597.980164 
	C601.000000,598.998596 601.000000,599.997192 601.000000,600.997925 
	C500.975922,601.000000 400.951843,601.000000 300.351379,600.684448 
	C251.885880,552.098450 203.994492,503.830200 156.118973,455.546204 
	C154.730911,454.146271 153.510681,452.579987 152.662704,451.032349 
	C218.374405,450.976898 283.635590,450.995789 348.896790,450.977631 
	C383.523834,450.968018 418.150909,450.894043 452.777954,450.849091 
z"/>
<path fill="#5CDBD3" opacity="1.000000" stroke="none" 
	d="
M152.212204,451.091278 
	C153.510681,452.579987 154.730911,454.146271 156.118973,455.546204 
	C203.994492,503.830200 251.885880,552.098450 299.887512,600.684448 
	C200.406265,601.000000 100.812546,601.000000 1.000000,601.000000 
	C1.000000,501.645874 1.000000,402.291595 1.321531,302.474854 
	C2.066897,301.953522 2.490732,301.894714 3.234749,301.978210 
	C51.811592,350.357666 100.066956,398.596100 148.332611,446.824280 
	C149.497498,447.988281 150.776779,449.037781 152.037872,450.382111 
	C152.073029,450.623566 152.212204,451.091278 152.212204,451.091278 
z"/>
<path fill="#9254DE" opacity="1.000000" stroke="none" 
	d="
M2.914567,301.835907 
	C2.490732,301.894714 2.066897,301.953522 1.321531,302.006165 
	C1.000000,201.666672 1.000000,101.333336 1.500000,1.000000 
	C3.424266,2.785068 4.691313,4.727279 6.295641,6.332371 
	C54.583149,54.642879 102.903946,102.920113 151.163879,151.749115 
	C145.807648,157.598740 140.523178,162.918076 135.203857,168.202332 
	C91.934311,211.186752 48.649292,254.155609 5.431194,297.191681 
	C4.235955,298.381897 3.737781,300.272095 2.914567,301.835907 
z"/>
<path fill="#F5222D" opacity="1.000000" stroke="none" 
	d="
M3.234749,301.978210 
	C3.737781,300.272095 4.235955,298.381897 5.431194,297.191681 
	C48.649292,254.155609 91.934311,211.186752 135.203857,168.202332 
	C140.523178,162.918076 145.807648,157.598740 151.372070,152.028717 
	C152.785873,152.683289 154.036377,153.504425 155.071426,154.540741 
	C203.647583,203.176956 252.205032,251.831848 300.781372,301.049408 
	C253.237518,349.163086 205.678299,396.713440 158.111343,444.255981 
	C156.111923,446.254364 154.040558,448.180725 152.002716,450.140625 
	C150.776779,449.037781 149.497498,447.988281 148.332611,446.824280 
	C100.066956,398.596100 51.811592,350.357666 3.234749,301.978210 
z"/>
<path fill="#FA8C16" opacity="1.000000" stroke="none" 
	d="
M152.037872,450.382080 
	C154.040558,448.180725 156.111923,446.254364 158.111343,444.255981 
	C205.678299,396.713440 253.237518,349.163086 300.975464,301.329102 
	C301.485077,301.012329 301.817383,300.980621 302.399536,300.928375 
	C327.031799,325.223785 351.406250,349.547699 375.798798,373.853485 
	C401.369965,399.333679 426.958496,424.796417 452.658691,450.557922 
	C418.150909,450.894043 383.523834,450.968018 348.896790,450.977631 
	C283.635590,450.995789 218.374405,450.976898 152.662704,451.032349 
	C152.212204,451.091278 152.073029,450.623566 152.037872,450.382080 
z"/>
</svg>